<?xml version="1.0" encoding="UTF-8"?>
<svg id="Layer_1" data-name="Layer 1" xmlns="http://www.w3.org/2000/svg" viewBox="0 0 1000 1000">
  <defs>
    <style>
      .cls-1 {
        stroke-width: 0px;
      }
    </style>
  </defs>
  <path class="cls-1" d="m492.59,956.29c-102.49,0-204.98,0-307.47,0-39.69,0-76.17-10.01-109.42-32.51-68.51-46.37-96.94-146.38-58.28-219.19,35.74-67.31,75.09-132.72,113.21-198.76,70.73-122.52,141.8-244.85,212.56-367.35,19.9-34.45,46.6-61.19,82.91-78.42,76.61-36.34,174.98-10.54,220.01,61.25,38.55,61.44,73.79,124.97,110.2,187.75,71.35,123.02,142.29,246.27,213.84,369.16,21.97,37.73,33.92,77.15,28.58,121.27-9.99,82.55-79.51,149.58-162.23,155.5-11.38.81-22.82,1.24-34.23,1.25-103.23.09-206.45.06-309.68.05Zm7.13-80.96c70.78,0,141.55.05,212.33-.02,38.7-.04,77.43.54,116.1-.66,30.17-.94,54.66-15.1,71.91-39.66,25.22-35.92,25.31-73.07,3.31-110.99-83.55-144.02-166.85-288.2-250.24-432.31-22.14-38.26-44.39-76.45-66.37-114.81-14.43-25.18-34.68-42.88-63.3-49.6-44.59-10.47-84.84,7.73-109.21,49.54-38.58,66.2-76.83,132.59-115.23,198.9-67.38,116.35-134.71,232.74-202.19,349.03-13.26,22.86-19.4,46.92-13.69,73.1,10.44,47.81,48.12,77.34,99.2,77.43,105.79.17,211.59.05,317.38.05Z"/>
  <path class="cls-1" d="m550.47,395.85c-3.38,58.84-7.3,126.83-11.18,194.83-.46,8.08-.17,16.23-1.05,24.26-2.24,20.38-17.85,34.53-37.7,34.72-20.24.2-36.42-13.01-38.15-33.82-2.99-35.94-4.44-72.01-6.66-108.02-2.52-40.78-5.45-81.54-7.68-122.33-1.3-23.8,6.79-43.72,28.42-55.74,18.51-10.28,37.13-8.25,54.03,4.02,17.93,13.02,22.27,31.98,19.97,62.08Z"/>
  <path class="cls-1" d="m500.06,787.18c-28.16-.08-51.18-23.35-50.94-51.51.23-27.45,23.37-50.58,50.79-50.78,28.1-.21,50.42,22.6,50.64,51.73.21,27.7-22.7,50.63-50.49,50.56Z"/>
</svg>